# xmcd
#
# Track frame offsets:
#	183
#	57013
#	73563
#	90585
#	104403
#	125313
#	146025
#	164683
#	181288
#	197565
#
# Disc length: 2883 seconds
#
# Revision: 2
# Processed by: cddbd v1.5.1PL0 Copyright (c) Steve Scherf et al.
# Submitted via: audiograbber 1.83.01
#
DISCID=8a0b410a
DTITLE=Bo Diddley - Mona
DYEAR=1900
DGENRE=
TTITLE0=Hey Bo Didley
TTITLE1=Road Runner
TTITLE2=Say Bossman
TTITLE3=Bring It To Jerome
TTITLE4=Somebody Beat Me
TTITLE5=I'm Sorry
TTITLE6=Little Girl
TTITLE7=Mona
TTITLE8=You Can't Judge A Book By Looking At The Cover
TTITLE9=Tonight Is Ours
EXTD=
EXTT0=
EXTT1=
EXTT2=
EXTT3=
EXTT4=
EXTT5=
EXTT6=
EXTT7=
EXTT8=
EXTT9=
PLAYORDER=
